<?xml version="1.0" standalone="no"?>
<!DOCTYPE svg PUBLIC "-//W3C//DTD SVG 20010904//EN"
 "http://www.w3.org/TR/2001/REC-SVG-20010904/DTD/svg10.dtd">
<svg version="1.0" xmlns="http://www.w3.org/2000/svg"
 width="500.000000pt" height="500.000000pt" viewBox="0 0 500.000000 500.000000"
 preserveAspectRatio="xMidYMid meet">

<g transform="translate(0.000000,500.000000) scale(0.100000,-0.100000)"
fill="#000000" stroke="none">
<path d="M2452 4335 c-17 -8 -60 -34 -95 -59 -192 -137 -430 -242 -672 -297
-156 -36 -274 -50 -477 -56 -215 -6 -237 -12 -275 -70 -16 -24 -18 -48 -15
-233 9 -633 59 -1213 133 -1538 80 -351 183 -550 382 -739 108 -102 235 -187
529 -356 130 -75 294 -172 365 -217 123 -78 130 -81 178 -77 41 3 68 15 154
72 58 37 214 130 348 207 289 164 409 242 520 338 319 273 455 666 517 1500
21 267 36 632 36 844 0 154 -2 172 -21 203 -34 55 -61 63 -207 63 -467 0 -859
114 -1207 350 -110 75 -144 87 -193 65z m134 -351 c304 -191 697 -309 1102
-331 l123 -6 -6 -196 c-32 -1001 -118 -1494 -308 -1776 -101 -149 -209 -230
-617 -462 -102 -58 -228 -132 -281 -165 -53 -32 -99 -58 -103 -58 -3 0 -43 23
-89 51 -45 28 -188 112 -317 187 -287 165 -380 226 -470 309 -70 65 -158 187
-197 273 -136 298 -201 767 -229 1628 l-7 212 69 0 c96 0 304 26 448 55 257
52 529 162 737 298 30 20 55 36 55 36 1 1 42 -24 90 -55z"/>
<path d="M2331 3365 c-269 -51 -501 -231 -608 -473 -48 -109 -65 -196 -64
-337 1 -152 20 -243 76 -357 99 -203 263 -345 490 -424 75 -27 90 -28 245 -29
181 0 220 8 355 70 170 79 324 236 401 410 66 149 84 373 44 530 -75 293 -312
528 -604 599 -97 24 -245 29 -335 11z m647 -364 c-1 -5 -25 -32 -51 -60 l-48
-51 -243 0 c-273 0 -315 -7 -403 -67 -56 -38 -87 -73 -124 -143 -21 -39 -24
-58 -24 -150 0 -96 3 -110 28 -158 76 -144 219 -213 415 -199 86 6 86 6 131
52 l46 45 -164 0 c-194 0 -220 8 -299 95 -80 87 -91 170 -36 282 31 64 83 109
148 128 54 16 406 22 406 7 0 -4 -22 -30 -50 -57 l-50 -49 -127 -1 c-104 0
-134 -3 -161 -18 -46 -25 -72 -72 -72 -129 0 -39 6 -54 31 -82 17 -20 47 -40
67 -46 21 -5 155 -10 310 -10 149 0 272 -3 272 -8 0 -4 -72 -79 -159 -166
l-160 -160 -114 -4 c-211 -8 -343 35 -449 145 -73 77 -104 134 -130 234 -18
75 -20 92 -9 159 28 185 160 347 329 401 50 16 95 18 375 18 192 1 317 -3 315
-8z"/>
</g>
</svg>
